<?xml version="1.0" encoding="utf-8"?>
<!-- Generator: Adobe Illustrator 17.0.0, SVG Export Plug-In . SVG Version: 6.00 Build 0)  -->
<!DOCTYPE svg PUBLIC "-//W3C//DTD SVG 1.1//EN" "http://www.w3.org/Graphics/SVG/1.1/DTD/svg11.dtd">
<svg version="1.1" id="Layer_1" xmlns="http://www.w3.org/2000/svg" xmlns:xlink="http://www.w3.org/1999/xlink" x="0px" y="0px"
	 width="24px" height="24px" viewBox="0 0 24 24" enable-background="new 0 0 24 24" xml:space="preserve">
<path fill="#FFFFFF" d="M10,1c1.219,0,2.384,0.238,3.496,0.715s2.069,1.116,2.871,1.918c0.802,0.802,1.441,1.759,1.918,2.871
	S19,8.781,19,10c0,1.047-0.171,2.049-0.512,3.008c-0.341,0.959-0.827,1.828-1.457,2.609l5.68,5.672C22.904,21.482,23,21.719,23,22
	c0,0.287-0.095,0.525-0.285,0.715C22.525,22.905,22.287,23,22,23c-0.281,0-0.518-0.096-0.711-0.289l-5.672-5.68
	c-0.781,0.63-1.651,1.116-2.609,1.457C12.05,18.829,11.047,19,10,19c-1.219,0-2.384-0.238-3.496-0.715s-2.069-1.116-2.871-1.918
	c-0.802-0.802-1.441-1.759-1.918-2.871S1,11.219,1,10s0.238-2.384,0.715-3.496s1.116-2.069,1.918-2.871s1.759-1.441,2.871-1.918
	S8.781,1,10,1z M10,3C9.052,3,8.146,3.185,7.281,3.555S5.672,4.422,5.047,5.047S3.925,6.416,3.555,7.281C3.185,8.146,3,9.052,3,10
	c0,0.948,0.185,1.854,0.555,2.719c0.37,0.865,0.867,1.609,1.492,2.234s1.369,1.122,2.234,1.492S9.052,17,10,17
	s1.854-0.185,2.719-0.555c0.865-0.37,1.609-0.867,2.234-1.492s1.122-1.369,1.492-2.234C16.815,11.854,17,10.948,17,10
	s-0.185-1.854-0.555-2.719s-0.867-1.609-1.492-2.234s-1.369-1.122-2.234-1.492C11.854,3.185,10.948,3,10,3z"/>
</svg>
