<?xml version="1.0" encoding="utf-8"?>
<!-- Generator: Adobe Illustrator 20.1.0, SVG Export Plug-In . SVG Version: 6.00 Build 0)  -->
<svg version="1.1" id="Layer_1" xmlns="http://www.w3.org/2000/svg" xmlns:xlink="http://www.w3.org/1999/xlink" x="0px" y="0px"
	 viewBox="0 0 181.7 181.7" style="enable-background:new 0 0 181.7 181.7;" xml:space="preserve">
<style type="text/css">
	.st0{fill:#57585C;}
	.st1{fill:#FFFFFF;}
</style>
<circle class="st0" cx="90.8" cy="90.8" r="90.8"/>
<g>
	<path class="st1" d="M82,121H62.5l-15-23.2V121H31.8V60.7h24.4c3.4,0,6.3,0.5,8.8,1.5c2.5,1,4.6,2.3,6.2,4c1.6,1.7,2.9,3.7,3.7,5.9
		c0.8,2.2,1.2,4.6,1.2,7.2c0,4.6-1.1,8.3-3.3,11.2c-2.2,2.9-5.5,4.8-9.8,5.8L82,121z M47.5,87.6h3c3.1,0,5.5-0.6,7.1-1.9
		c1.7-1.3,2.5-3.1,2.5-5.5c0-2.4-0.8-4.2-2.5-5.5c-1.7-1.3-4-1.9-7.1-1.9h-3V87.6z"/>
	<path class="st1" d="M129.5,110.5h-22.4l-3.6,10.5H86.8l23-60.3h17.1l23,60.3h-16.7L129.5,110.5z M125.3,98.6l-7-20.1l-7,20.1
		H125.3z"/>
</g>
</svg>
